<svg viewBox="0 0 120 120" xmlns="http://www.w3.org/2000/svg" role="img" aria-label="Eremite.js">
  <rect x="2" y="2" width="116" height="116" rx="26" fill="#f4e9d4"/>
  <rect x="2.5" y="2.5" width="115" height="115" rx="25.5" fill="none" stroke="#c9a24b" stroke-width="2"/>
  <path d="M60 66 C45 66 37 76 35 88 C33.8 96 32.3 104.5 31.8 108 C31.4 111 33.2 113 36.2 113 L83.8 113 C86.8 113 88.6 111 88.2 108 C87.7 104.5 86.2 96 85 88 C83 76 75 66 60 66 Z" fill="#6f4a2f"/>
  <g fill="#e9e0d2">
    <circle cx="60" cy="44" r="27"/>
    <circle cx="60" cy="23" r="13"/>
    <circle cx="46" cy="27" r="11"/>
    <circle cx="74" cy="27" r="11"/>
    <circle cx="36" cy="39" r="11"/>
    <circle cx="84" cy="39" r="11"/>
    <circle cx="34" cy="52" r="10"/>
    <circle cx="86" cy="52" r="10"/>
    <circle cx="38" cy="64" r="9"/>
    <circle cx="82" cy="64" r="9"/>
  </g>
  <circle cx="60" cy="48" r="18" fill="#f0d6b3"/>
  <path d="M46.5 42.5 Q51 40.3 55.5 42.2" stroke="#f4ece0" stroke-width="3.4" stroke-linecap="round" fill="none"/>
  <path d="M64.5 42.2 Q69 40.3 73.5 42.5" stroke="#f4ece0" stroke-width="3.4" stroke-linecap="round" fill="none"/>
  <path d="M47.5 48.5 Q51.5 44.5 55.5 48.5" stroke="#3d2817" stroke-width="2.6" stroke-linecap="round" fill="none"/>
  <path d="M64.5 48.5 Q68.5 44.5 72.5 48.5" stroke="#3d2817" stroke-width="2.6" stroke-linecap="round" fill="none"/>
  <circle cx="45.5" cy="53.5" r="3.3" fill="#d98c6a" opacity="0.55"/>
  <circle cx="74.5" cy="53.5" r="3.3" fill="#d98c6a" opacity="0.55"/>
  <circle cx="60" cy="53" r="2.4" fill="#dcae82"/>
  <path d="M45 50 C42 62 45.5 73 52.5 77 Q60 80.5 67.5 77 C74.5 73 78 62 75 50 C70.5 55.5 65.5 57.5 60 57.5 C54.5 57.5 49.5 55.5 45 50 Z" fill="#e9e0d2"/>
  <path d="M60 55.5 C56.5 53.2 51.5 53.8 49.5 56.5 C52 59 57 59.6 60 57.6 C63 59.6 68 59 70.5 56.5 C68.5 53.8 63.5 53.2 60 55.5 Z" fill="#f4ece0"/>
  <path d="M54.5 84.5 Q60 79.5 65.5 84.5 Z" fill="#b0842a"/>
  <rect x="53" y="84" width="14" height="14.5" rx="2.6" fill="#b0842a"/>
  <rect x="55.3" y="86.3" width="9.4" height="10" rx="1.4" fill="#f3d27a"/>
  <path d="M60 88 C61.6 90.2 61.7 92.2 60 93.2 C58.3 92.2 58.4 90.2 60 88 Z" fill="#c47b2e"/>
  <circle cx="50" cy="91" r="4.6" fill="#f0d6b3"/>
  <circle cx="70" cy="91" r="4.6" fill="#f0d6b3"/>
</svg>
