<svg viewBox="0 0 120 120" xmlns="http://www.w3.org/2000/svg" role="img" aria-label="Eremite.js">
  <rect x="2" y="2" width="116" height="116" rx="26" fill="#f4e9d4"/>
  <rect x="2.5" y="2.5" width="115" height="115" rx="25.5" fill="none" stroke="#c9a24b" stroke-width="2"/>
  <path d="M60 10 C39.5 10 30 27 30 45.5 C30 59 27.2 82.5 25 106 C24.7 109 26.4 111 29.3 111 L90.7 111 C93.6 111 95.3 109 95 106 C92.8 82.5 90 59 90 45.5 C90 27 80.5 10 60 10 Z" fill="#6f4a2f"/>
  <circle cx="60" cy="51" r="23.5" fill="#4a2f1c"/>
  <circle cx="60" cy="53" r="19" fill="#f0d6b3"/>
  <path d="M48.5 53.5 Q52.3 49.4 56 53.5" stroke="#3d2817" stroke-width="2.6" stroke-linecap="round" fill="none"/>
  <path d="M64 53.5 Q67.7 49.4 71.5 53.5" stroke="#3d2817" stroke-width="2.6" stroke-linecap="round" fill="none"/>
  <circle cx="46.5" cy="58.5" r="3.3" fill="#d98c6a" opacity="0.55"/>
  <circle cx="73.5" cy="58.5" r="3.3" fill="#d98c6a" opacity="0.55"/>
  <circle cx="60" cy="58" r="2.4" fill="#dcae82"/>
  <path d="M46 55 C43 66 46 76.5 53 80.5 Q60 84.5 67 80.5 C74 76.5 77 66 74 55 C70 60 65 62 60 62 C55 62 50 60 46 55 Z" fill="#e9e0d2"/>
  <path d="M60 60.5 C56.5 58.2 51.5 58.8 49.5 61.5 C52 64 57 64.6 60 62.6 C63 64.6 68 64 70.5 61.5 C68.5 58.8 63.5 58.2 60 60.5 Z" fill="#f4ece0"/>
  <path d="M55 88 Q60 83.5 65 88 Z" fill="#b0842a"/>
  <rect x="53.5" y="87.5" width="13" height="13.5" rx="2.5" fill="#b0842a"/>
  <rect x="55.7" y="89.7" width="8.6" height="9" rx="1.3" fill="#f3d27a"/>
  <path d="M60 91 C61.5 93 61.6 94.9 60 95.8 C58.4 94.9 58.5 93 60 91 Z" fill="#c47b2e"/>
  <circle cx="50.5" cy="94" r="4.6" fill="#f0d6b3"/>
  <circle cx="69.5" cy="94" r="4.6" fill="#f0d6b3"/>
</svg>
