<svg viewBox="0 0 120 120" xmlns="http://www.w3.org/2000/svg" role="img" aria-label="Eremite.js">
  <rect x="2" y="2" width="116" height="116" rx="26" fill="#f4e9d4"/>
  <rect x="2.5" y="2.5" width="115" height="115" rx="25.5" fill="none" stroke="#c9a24b" stroke-width="2"/>
  <path d="M22 118 C20 88 30 68 60 68 C90 68 100 88 98 118 Z" fill="#6f4a2f"/>
  <ellipse cx="60" cy="54" rx="24" ry="25" fill="#e8c9a0"/>
  <path d="M60 16 C39 16 28 32 28 52 C28 64 34 73 44 77 C40 69 39 60 39 54 C39 42 48 35 60 35 C72 35 81 42 81 54 C81 60 80 69 76 77 C86 73 92 64 92 52 C92 32 81 16 60 16 Z" fill="#5a3b26"/>
  <circle cx="49" cy="62" r="4.4" fill="#d98c6a" opacity="0.5"/>
  <circle cx="71" cy="62" r="4.4" fill="#d98c6a" opacity="0.5"/>
  <path d="M45 56 Q51 51 57 56" stroke="#3d2817" stroke-width="2.6" stroke-linecap="round" fill="none"/>
  <path d="M63 56 Q69 51 75 56" stroke="#3d2817" stroke-width="2.6" stroke-linecap="round" fill="none"/>
  <path d="M54 66 Q60 71.5 66 66" stroke="#3d2817" stroke-width="2.4" stroke-linecap="round" fill="none"/>
</svg>
